# xmcd
#
# Track frame offsets:
#	150
#	20193
#	40513
#	57560
#	78180
#	94373
#	114081
#	135178
#	153573
#	166759
#	184872
#	203448
#	221885
#	237612
#
# Disc length: 3450 seconds
#
# Revision: 0
# Processed by: cddbd v1.5.2PL0 Copyright (c) Steve Scherf et al.
# Submitted via: dBpowerAMP V4.0
#
DISCID=b70d780e
DTITLE=´Dr.Harmonica - The Power Of The Blues
DYEAR=2006
DGENRE=Blues
TTITLE0=Track01 The Married Man Blues
TTITLE1=Track02 A Young Man´s Mind (In An Old Man´s Body)
TTITLE2=Track03 There´s A Devil In Me
TTITLE3=Track04 The Blues Are Hip
TTITLE4=Track05 Tore Down
TTITLE5=Track06 The Power Of The Blues
TTITLE6=Track07 If I Could Do It All Over Again
TTITLE7=Track08 Big Bottom Woman
TTITLE8=Track09 Hot And Spicy
TTITLE9=Track10 Take Me Back
TTITLE10=Track11 The Things I Like
TTITLE11=Track12 The Boogie Man
TTITLE12=Track13 That Female Stuff
TTITLE13=Track14 Nothing But The Blues
EXTD=
EXTT0=
EXTT1=
EXTT2=
EXTT3=
EXTT4=
EXTT5=
EXTT6=
EXTT7=
EXTT8=
EXTT9=
EXTT10=
EXTT11=
EXTT12=
EXTT13=
PLAYORDER=
